<mxfile host="app.diagrams.net" modified="2023-08-18T09:50:42.961Z" agent="Mozilla/5.0 (X11; Linux x86_64) AppleWebKit/537.36 (KHTML, like Gecko) Chrome/116.0.0.0 Safari/537.36" etag="3VPDqgtNfUw6igHPPmwM" version="21.6.8" type="github">
  <diagram name="Page-1" id="jylNKLlDIU8b3UsnweKm">
    <mxGraphModel dx="880" dy="459" grid="1" gridSize="10" guides="1" tooltips="1" connect="1" arrows="1" fold="1" page="1" pageScale="1" pageWidth="850" pageHeight="1100" math="0" shadow="0">
      <root>
        <mxCell id="0" />
        <mxCell id="1" parent="0" />
        <mxCell id="zNZTk-vjiUhKI41zOsoS-6" style="edgeStyle=orthogonalEdgeStyle;rounded=0;orthogonalLoop=1;jettySize=auto;html=1;" edge="1" parent="1" source="zNZTk-vjiUhKI41zOsoS-1" target="zNZTk-vjiUhKI41zOsoS-2">
          <mxGeometry relative="1" as="geometry" />
        </mxCell>
        <mxCell id="zNZTk-vjiUhKI41zOsoS-1" value="START" style="strokeWidth=2;html=1;shape=mxgraph.flowchart.start_1;whiteSpace=wrap;" vertex="1" parent="1">
          <mxGeometry x="350" y="10" width="100" height="60" as="geometry" />
        </mxCell>
        <mxCell id="zNZTk-vjiUhKI41zOsoS-7" style="edgeStyle=orthogonalEdgeStyle;rounded=0;orthogonalLoop=1;jettySize=auto;html=1;entryX=0.5;entryY=0;entryDx=0;entryDy=0;entryPerimeter=0;" edge="1" parent="1" source="zNZTk-vjiUhKI41zOsoS-2" target="zNZTk-vjiUhKI41zOsoS-3">
          <mxGeometry relative="1" as="geometry" />
        </mxCell>
        <mxCell id="zNZTk-vjiUhKI41zOsoS-2" value="Enter job&amp;nbsp;&lt;br&gt;position" style="shape=parallelogram;html=1;strokeWidth=2;perimeter=parallelogramPerimeter;whiteSpace=wrap;rounded=1;arcSize=12;size=0.23;" vertex="1" parent="1">
          <mxGeometry x="330" y="120" width="100" height="60" as="geometry" />
        </mxCell>
        <mxCell id="zNZTk-vjiUhKI41zOsoS-8" style="edgeStyle=orthogonalEdgeStyle;rounded=0;orthogonalLoop=1;jettySize=auto;html=1;entryX=0.5;entryY=0;entryDx=0;entryDy=0;entryPerimeter=0;" edge="1" parent="1" source="zNZTk-vjiUhKI41zOsoS-3" target="zNZTk-vjiUhKI41zOsoS-5">
          <mxGeometry relative="1" as="geometry" />
        </mxCell>
        <mxCell id="zNZTk-vjiUhKI41zOsoS-12" style="edgeStyle=orthogonalEdgeStyle;rounded=0;orthogonalLoop=1;jettySize=auto;html=1;" edge="1" parent="1" source="zNZTk-vjiUhKI41zOsoS-3" target="zNZTk-vjiUhKI41zOsoS-9">
          <mxGeometry relative="1" as="geometry" />
        </mxCell>
        <mxCell id="zNZTk-vjiUhKI41zOsoS-3" value="Is job remote?" style="strokeWidth=2;html=1;shape=mxgraph.flowchart.decision;whiteSpace=wrap;" vertex="1" parent="1">
          <mxGeometry x="320" y="230" width="100" height="70" as="geometry" />
        </mxCell>
        <mxCell id="zNZTk-vjiUhKI41zOsoS-11" style="edgeStyle=orthogonalEdgeStyle;rounded=0;orthogonalLoop=1;jettySize=auto;html=1;" edge="1" parent="1" source="zNZTk-vjiUhKI41zOsoS-5" target="zNZTk-vjiUhKI41zOsoS-10">
          <mxGeometry relative="1" as="geometry" />
        </mxCell>
        <mxCell id="zNZTk-vjiUhKI41zOsoS-13" style="edgeStyle=orthogonalEdgeStyle;rounded=0;orthogonalLoop=1;jettySize=auto;html=1;" edge="1" parent="1" source="zNZTk-vjiUhKI41zOsoS-5">
          <mxGeometry relative="1" as="geometry">
            <mxPoint x="600" y="385" as="targetPoint" />
          </mxGeometry>
        </mxCell>
        <mxCell id="zNZTk-vjiUhKI41zOsoS-17" value="" style="edgeStyle=orthogonalEdgeStyle;rounded=0;orthogonalLoop=1;jettySize=auto;html=1;" edge="1" parent="1" source="zNZTk-vjiUhKI41zOsoS-5" target="zNZTk-vjiUhKI41zOsoS-10">
          <mxGeometry relative="1" as="geometry" />
        </mxCell>
        <mxCell id="zNZTk-vjiUhKI41zOsoS-5" value="Will it add skills?" style="strokeWidth=2;html=1;shape=mxgraph.flowchart.decision;whiteSpace=wrap;" vertex="1" parent="1">
          <mxGeometry x="320" y="350" width="100" height="70" as="geometry" />
        </mxCell>
        <mxCell id="zNZTk-vjiUhKI41zOsoS-21" style="edgeStyle=orthogonalEdgeStyle;rounded=0;orthogonalLoop=1;jettySize=auto;html=1;entryX=1;entryY=0.5;entryDx=0;entryDy=0;entryPerimeter=0;" edge="1" parent="1" source="zNZTk-vjiUhKI41zOsoS-9" target="zNZTk-vjiUhKI41zOsoS-20">
          <mxGeometry relative="1" as="geometry" />
        </mxCell>
        <mxCell id="zNZTk-vjiUhKI41zOsoS-9" value="Not worth applying" style="shape=parallelogram;html=1;strokeWidth=2;perimeter=parallelogramPerimeter;whiteSpace=wrap;rounded=1;arcSize=12;size=0.23;" vertex="1" parent="1">
          <mxGeometry x="550" y="460" width="100" height="60" as="geometry" />
        </mxCell>
        <mxCell id="zNZTk-vjiUhKI41zOsoS-22" style="edgeStyle=orthogonalEdgeStyle;rounded=0;orthogonalLoop=1;jettySize=auto;html=1;entryX=0;entryY=0.5;entryDx=0;entryDy=0;entryPerimeter=0;" edge="1" parent="1" source="zNZTk-vjiUhKI41zOsoS-10" target="zNZTk-vjiUhKI41zOsoS-20">
          <mxGeometry relative="1" as="geometry" />
        </mxCell>
        <mxCell id="zNZTk-vjiUhKI41zOsoS-10" value="Worth &lt;br&gt;applying" style="shape=parallelogram;html=1;strokeWidth=2;perimeter=parallelogramPerimeter;whiteSpace=wrap;rounded=1;arcSize=12;size=0.23;" vertex="1" parent="1">
          <mxGeometry x="310" y="480" width="100" height="60" as="geometry" />
        </mxCell>
        <mxCell id="zNZTk-vjiUhKI41zOsoS-14" value="NO" style="text;html=1;align=center;verticalAlign=middle;resizable=0;points=[];autosize=1;strokeColor=none;fillColor=none;" vertex="1" parent="1">
          <mxGeometry x="430" y="238" width="40" height="30" as="geometry" />
        </mxCell>
        <mxCell id="zNZTk-vjiUhKI41zOsoS-15" value="NO" style="text;html=1;align=center;verticalAlign=middle;resizable=0;points=[];autosize=1;strokeColor=none;fillColor=none;" vertex="1" parent="1">
          <mxGeometry x="430" y="358" width="40" height="30" as="geometry" />
        </mxCell>
        <mxCell id="zNZTk-vjiUhKI41zOsoS-16" value="YES" style="text;html=1;align=center;verticalAlign=middle;resizable=0;points=[];autosize=1;strokeColor=none;fillColor=none;" vertex="1" parent="1">
          <mxGeometry x="365" y="298" width="50" height="30" as="geometry" />
        </mxCell>
        <mxCell id="zNZTk-vjiUhKI41zOsoS-18" value="YES" style="text;html=1;align=center;verticalAlign=middle;resizable=0;points=[];autosize=1;strokeColor=none;fillColor=none;" vertex="1" parent="1">
          <mxGeometry x="365" y="418" width="50" height="30" as="geometry" />
        </mxCell>
        <mxCell id="zNZTk-vjiUhKI41zOsoS-24" style="edgeStyle=orthogonalEdgeStyle;rounded=0;orthogonalLoop=1;jettySize=auto;html=1;entryX=0.5;entryY=0;entryDx=0;entryDy=0;entryPerimeter=0;" edge="1" parent="1" source="zNZTk-vjiUhKI41zOsoS-20" target="zNZTk-vjiUhKI41zOsoS-23">
          <mxGeometry relative="1" as="geometry" />
        </mxCell>
        <mxCell id="zNZTk-vjiUhKI41zOsoS-20" value="" style="verticalLabelPosition=bottom;verticalAlign=top;html=1;shape=mxgraph.flowchart.on-page_reference;" vertex="1" parent="1">
          <mxGeometry x="440" y="600" width="30" height="30" as="geometry" />
        </mxCell>
        <mxCell id="zNZTk-vjiUhKI41zOsoS-23" value="STOP" style="strokeWidth=2;html=1;shape=mxgraph.flowchart.start_1;whiteSpace=wrap;" vertex="1" parent="1">
          <mxGeometry x="420" y="710" width="100" height="60" as="geometry" />
        </mxCell>
      </root>
    </mxGraphModel>
  </diagram>
</mxfile>
